<?xml version="1.0" encoding="utf-8"?>
<!-- Generator: Adobe Illustrator 16.0.0, SVG Export Plug-In . SVG Version: 6.00 Build 0)  -->
<!DOCTYPE svg PUBLIC "-//W3C//DTD SVG 1.1//EN" "http://www.w3.org/Graphics/SVG/1.1/DTD/svg11.dtd">
<svg version="1.1" id="Capa_1" focusable="false" xmlns="http://www.w3.org/2000/svg" xmlns:xlink="http://www.w3.org/1999/xlink"
	 x="0px" y="0px" width="792px" height="612px" viewBox="0 0 792 612" enable-background="new 0 0 792 612" xml:space="preserve">
<path d="M692.438,306c0,163.758-132.68,296.438-296.438,296.438S99.562,469.758,99.562,306S232.242,9.562,396,9.562
	S692.438,142.242,692.438,306z"/>
<path fill="#FFFFFF" d="M416.32,442.146l161.965-161.965c11.236-11.236,11.236-29.405,0-40.521l-20.32-20.32
	c-11.236-11.236-29.404-11.236-40.521,0L396,340.783L274.556,219.34c-11.236-11.236-29.405-11.236-40.521,0l-20.32,20.32
	c-11.236,11.236-11.236,29.405,0,40.521L375.68,442.146C386.916,453.382,405.084,453.382,416.32,442.146z"/>
</svg>
